<svg width="960" height="720" xmlns="http://www.w3.org/2000/svg" xmlns:xlink="http://www.w3.org/1999/xlink" overflow="hidden"><defs><clipPath id="clip0"><rect x="0" y="0" width="960" height="720"/></clipPath></defs><g clip-path="url(#clip0)"><rect x="0" y="0" width="960" height="720" fill="#FFFFFF"/><path d="M159 104 159 672.642 155 672.642 155 104ZM163 670.642 157 682.642 151 670.642Z" fill="#0166A2"/><text font-family="Pretendard,Pretendard_MSFontService,sans-serif" font-weight="400" font-size="24" transform="translate(220.558 49)">Main Project<tspan fill="#404040" font-size="15" x="-3.85228" y="85">사용자</tspan><tspan fill="#404040" font-size="15" x="37.8144" y="85">니즈를</tspan><tspan fill="#404040" font-size="15" x="79.481" y="85">파악하여</tspan><tspan fill="#404040" font-size="15" x="133.814" y="85">프로젝트</tspan><tspan fill="#404040" font-size="15" x="188.148" y="85">주제</tspan><tspan fill="#404040" font-size="15" x="217.148" y="85">선정</tspan><tspan fill="#404040" font-size="15" x="246.148" y="85">및</tspan><tspan fill="#404040" font-size="15" x="-3.85228" y="103">기획안을</tspan><tspan fill="#404040" font-size="15" x="50.481" y="103">작성합니다</tspan><tspan fill="#404040" font-size="15" x="113.814" y="103">.</tspan><tspan font-size="19" x="-134.03" y="86">1</tspan><tspan font-size="19" x="-125.864" y="86">학기</tspan><tspan font-size="19" x="-138.03" y="108">전반기</tspan><tspan font-size="19" x="-134.03" y="180">1</tspan><tspan font-size="19" x="-125.864" y="180">학기</tspan><tspan font-size="19" x="-138.03" y="202">후반기</tspan></text><path d="M0 0 41.9223 0.308136" stroke="#7F7F7F" stroke-width="1.33333" stroke-miterlimit="8" stroke-dasharray="4 1.33333" fill="none" fill-rule="evenodd" transform="matrix(1 0 0 -1 165.5 138.808)"/><text font-family="Pretendard,Pretendard_MSFontService,sans-serif" font-weight="400" font-size="19" transform="translate(70.1714 327)">여름<tspan font-size="19" x="37" y="0">방학</tspan><tspan font-size="19" x="14.943" y="95">2</tspan>학기<tspan font-size="19" x="12.3564" y="117">전반기</tspan><tspan font-size="19" x="14.9431" y="204">2</tspan>학기<tspan font-size="19" x="12.3564" y="226">후반기</tspan><tspan font-size="19" x="1.88241" y="314">겨울</tspan><tspan font-size="19" x="38.8824" y="314">방학</tspan><tspan font-size="24" x="597.908" y="-278">Sub Project</tspan><tspan font-size="19" x="572.233" y="-61">기업체</tspan><tspan font-size="19" x="625.4" y="-61">단기</tspan><tspan font-size="19" x="662.4" y="-61">외주</tspan><tspan font-size="19" x="699.4" y="-61">프로젝트</tspan></text><path d="M149.5 138.5C149.5 134.082 153.082 130.5 157.5 130.5 161.918 130.5 165.5 134.082 165.5 138.5 165.5 142.918 161.918 146.5 157.5 146.5 153.082 146.5 149.5 142.918 149.5 138.5Z" stroke="#014067" stroke-width="1.33333" stroke-miterlimit="8" fill="#FFFFFF" fill-rule="evenodd"/><path d="" transform="translate(216.706 113)"/><path d="M20.7163 3.99854C20.3143 3.99854 19.9308 3.92277 19.5659 3.77124 19.201 3.61971 18.8763 3.40169 18.5918 3.11719L13.0439-2.43066 13.0439-3.45117C12.5182-3.19141 11.9771-2.99658 11.4204-2.8667 10.8638-2.73682 10.2948-2.67188 9.71338-2.67188 9.03922-2.67188 8.38981-2.75846 7.76514-2.93164 7.14046-3.10482 6.55599-3.35067 6.01172-3.66919 5.46745-3.98771 4.97266-4.37117 4.52734-4.81958 4.08203-5.26798 3.70011-5.76278 3.38159-6.30396 3.06307-6.84513 2.81567-7.42806 2.6394-8.05273 2.46313-8.67741 2.375-9.32682 2.375-10.001 2.375-10.6751 2.46313-11.3245 2.6394-11.9492 2.81567-12.5739 3.06307-13.1584 3.38159-13.7026 3.70011-14.2469 4.08203-14.7417 4.52734-15.187 4.97266-15.6323 5.46745-16.0142 6.01172-16.3328 6.55599-16.6513 7.14046-16.8987 7.76514-17.075 8.38981-17.2512 9.03922-17.3394 9.71338-17.3394 10.3875-17.3394 11.0369-17.2512 11.6616-17.075 12.2863-16.8987 12.8692-16.6513 13.4104-16.3328 13.9516-16.0142 14.4464-15.6323 14.8948-15.187 15.3432-14.7417 15.7266-14.2469 16.0452-13.7026 16.3637-13.1584 16.6095-12.5739 16.7827-11.9492 16.9559-11.3245 17.0425-10.6751 17.0425-10.001 17.0425-9.4196 16.976-8.85059 16.843-8.29395 16.71-7.7373 16.5137-7.19922 16.2539-6.67969L17.2837-6.67969 22.8315-1.12256C23.116-0.838053 23.3341-0.513346 23.4856-0.148438 23.6371 0.216471 23.7129 0.599935 23.7129 1.00195 23.7129 1.41016 23.634 1.79671 23.4763 2.16162 23.3186 2.52653 23.1037 2.84505 22.8315 3.11719 22.5594 3.38932 22.2409 3.60425 21.876 3.76196 21.5111 3.91968 21.1245 3.99854 20.7163 3.99854Z" transform="translate(216.706 113)"/><path d="M15.1035-3.2749 12.376-6.00244 13.7119-7.33838 16.4395-4.61084Z" fill="#859599" transform="translate(216.706 113)"/><path d="M21.8945-0.17627 21.1616 1.45654 19.5288 2.18018 14.3799-2.97803 15.3076-4.40674 16.7363-5.33447Z" fill="#69797E" transform="translate(216.706 113)"/><path d="M21.709 0.667969 21.041 1.33594 15.3818-4.33252 16.0405-5.00049Z" fill="#A0AEB2" transform="translate(216.706 113)"/><path d="M19.5288 2.18018 21.8945-0.17627C22.0492-0.0216471 22.1682 0.157715 22.2517 0.361816 22.3352 0.565918 22.377 0.779297 22.377 1.00195 22.377 1.23079 22.3337 1.44727 22.2471 1.65137 22.1605 1.85547 22.0414 2.03328 21.8899 2.18481 21.7384 2.33634 21.5605 2.4554 21.3564 2.54199 21.1523 2.62858 20.9359 2.67188 20.707 2.67188 20.4906 2.67188 20.2803 2.62858 20.0762 2.54199 19.8721 2.4554 19.6896 2.3348 19.5288 2.18018Z" fill="#4A5459" transform="translate(216.706 113)"/><path d="M15.7065-10.001C15.7065-9.1722 15.5504-8.3929 15.238-7.66309 14.9257-6.93327 14.4974-6.29777 13.9531-5.75659 13.4089-5.21541 12.7734-4.78711 12.0466-4.47168 11.3199-4.15625 10.5422-3.99854 9.71338-3.99854 9.16292-3.99854 8.63102-4.06966 8.11768-4.21191 7.60433-4.35417 7.12655-4.55672 6.68433-4.81958 6.24211-5.08244 5.83854-5.39632 5.47363-5.76123 5.10872-6.12614 4.79484-6.5297 4.53198-6.97192 4.26912-7.41414 4.06657-7.89193 3.92432-8.40527 3.78206-8.91862 3.71094-9.45052 3.71094-10.001 3.71094-10.5514 3.78206-11.0833 3.92432-11.5967 4.06657-12.11 4.26758-12.5894 4.52734-13.0347 4.78711-13.48 5.09945-13.8851 5.46436-14.25 5.82926-14.6149 6.23437-14.9272 6.67969-15.187 7.125-15.4468 7.60278-15.6478 8.11304-15.79 8.62329-15.9323 9.15674-16.0034 9.71338-16.0034 10.5422-16.0034 11.3199-15.8457 12.0466-15.5303 12.7734-15.2148 13.4089-14.7865 13.9531-14.2454 14.4974-13.7042 14.9257-13.0687 15.238-12.3389 15.5504-11.609 15.7065-10.8298 15.7065-10.001ZM15.7065-5.33447 16.7363-5.33447 14.3799-2.97803 14.3799-3.99854Z" fill="#CCCCCC" transform="translate(216.706 113)"/><path d="M4.37891-10.001C4.37891-10.737 4.51807-11.4297 4.79639-12.0791 5.07471-12.7285 5.45508-13.2944 5.9375-13.7769 6.41992-14.2593 6.98584-14.6396 7.63525-14.918 8.28467-15.1963 8.97738-15.3354 9.71338-15.3354 10.4494-15.3354 11.1405-15.1947 11.7869-14.9133 12.4332-14.6319 12.9976-14.25 13.48-13.7676 13.9624-13.2852 14.3443-12.7208 14.6257-12.0745 14.9071-11.4281 15.0479-10.737 15.0479-10.001 15.0479-9.26497 14.9071-8.57381 14.6257-7.92749 14.3443-7.28117 13.9624-6.7168 13.48-6.23438 12.9976-5.75195 12.4332-5.37004 11.7869-5.08862 11.1405-4.80721 10.4494-4.6665 9.71338-4.6665 8.97738-4.6665 8.28621-4.80721 7.63989-5.08862 6.99357-5.37004 6.4292-5.75195 5.94678-6.23438 5.46436-6.7168 5.08244-7.28117 4.80103-7.92749 4.51961-8.57381 4.37891-9.26497 4.37891-10.001Z" fill="#83BEEC" transform="translate(216.706 113)"/><path d="M13.0068-13.3037 6.41064-6.70752C5.96533-7.14665 5.62516-7.65072 5.39014-8.21973 5.15511-8.78874 5.0376-9.38249 5.0376-10.001 5.0376-10.6442 5.15975-11.2503 5.40405-11.8193 5.64836-12.3883 5.98234-12.8847 6.40601-13.3083 6.82967-13.732 7.32446-14.066 7.89038-14.3103 8.4563-14.5546 9.06087-14.6768 9.7041-14.6768 10.3288-14.6768 10.9256-14.5592 11.4946-14.3242 12.0636-14.0892 12.5677-13.749 13.0068-13.3037Z" fill="#B3DBF2" transform="translate(216.706 113)"/><text font-family="Pretendard,Pretendard_MSFontService,sans-serif" font-weight="400" font-size="19" transform="translate(242.372 113)">시장<tspan font-size="19" x="37" y="0">조사</tspan><tspan font-size="19" x="74" y="0">및</tspan><tspan font-size="19" x="94.8333" y="0">기획</tspan><tspan fill="#404040" font-size="15" x="-25.6667" y="124">기획안을</tspan><tspan fill="#404040" font-size="15" x="28.6667" y="124">바탕으로</tspan><tspan fill="#404040" font-size="15" x="83" y="124">디자인을</tspan><tspan fill="#404040" font-size="15" x="137.333" y="124">제작합니다</tspan><tspan fill="#404040" font-size="15" x="200.667" y="124">.</tspan></text><path d="M165.5 231.5 207.422 231.869" stroke="#7F7F7F" stroke-width="1.33333" stroke-miterlimit="8" stroke-dasharray="4 1.33333" fill="none" fill-rule="evenodd"/><path d="M149.5 232C149.5 227.858 153.082 224.5 157.5 224.5 161.918 224.5 165.5 227.858 165.5 232 165.5 236.142 161.918 239.5 157.5 239.5 153.082 239.5 149.5 236.142 149.5 232Z" stroke="#014067" stroke-width="1.33333" stroke-miterlimit="8" fill="#FFFFFF" fill-rule="evenodd"/><path d="" transform="translate(216.706 214)"/><path d="M13.0439 3.99854C12.4935 3.99854 11.9755 3.89339 11.49 3.68311 11.0045 3.47282 10.5808 3.18677 10.219 2.82495 9.85718 2.46313 9.57113 2.03947 9.36084 1.55396 9.15055 1.06844 9.04541 0.550456 9.04541 0 9.04541-0.197917 9.05778-0.375732 9.08252-0.533447 9.10726-0.691162 9.14591-0.8396 9.19849-0.97876 9.25106-1.11792 9.31909-1.25553 9.40259-1.3916 9.48608-1.52767 9.5835-1.67301 9.69482-1.82764 9.76286-1.92041 9.82625-1.99772 9.88501-2.05957 9.94377-2.12142 10.001-2.18018 10.0566-2.23584 10.1123-2.2915 10.1664-2.35181 10.219-2.41675 10.2716-2.48169 10.3226-2.56673 10.3721-2.67188L6.37354-2.67188C5.82308-2.67188 5.30509-2.77702 4.81958-2.9873 4.33407-3.19759 3.9104-3.48364 3.54858-3.84546 3.18677-4.20728 2.90072-4.63094 2.69043-5.11646 2.48014-5.60197 2.375-6.11995 2.375-6.67041 2.375-7.64762 2.50179-8.59082 2.75537-9.5 3.00895-10.4092 3.36768-11.2596 3.83154-12.0513 4.29541-12.8429 4.85205-13.5635 5.50146-14.2129 6.15088-14.8623 6.87142-15.4189 7.66309-15.8828 8.45475-16.3467 9.30363-16.7054 10.2097-16.959 11.1158-17.2126 12.0605-17.3394 13.0439-17.3394 14.0212-17.3394 14.9644-17.2126 15.8735-16.959 16.7827-16.7054 17.6331-16.3467 18.4248-15.8828 19.2165-15.4189 19.937-14.8623 20.5864-14.2129 21.2358-13.5635 21.7925-12.8429 22.2563-12.0513 22.7202-11.2596 23.0789-10.4092 23.3325-9.5 23.5861-8.59082 23.7129-7.64762 23.7129-6.67041 23.7129-5.68701 23.5861-4.74227 23.3325-3.83618 23.0789-2.93009 22.7202-2.08122 22.2563-1.28955 21.7925-0.497884 21.2358 0.222656 20.5864 0.87207 19.937 1.52148 19.2165 2.07812 18.4248 2.54199 17.6331 3.00586 16.7827 3.36458 15.8735 3.61816 14.9644 3.87174 14.0212 3.99854 13.0439 3.99854Z" transform="translate(216.706 214)"/><path d="M13.0439 2.6626C12.6729 2.6626 12.325 2.59302 12.0002 2.45386 11.6755 2.3147 11.3926 2.12451 11.1514 1.8833 10.9102 1.64209 10.72 1.36068 10.5808 1.03906 10.4417 0.717448 10.3721 0.371094 10.3721 0 10.3721-0.216471 10.4045-0.402018 10.4695-0.556641 10.5344-0.711263 10.6164-0.851969 10.7153-0.97876 10.8143-1.10555 10.9225-1.22306 11.04-1.3313 11.1576-1.43953 11.2658-1.55705 11.3647-1.68384 11.4637-1.81063 11.5457-1.95133 11.6106-2.10596 11.6755-2.26058 11.708-2.44922 11.708-2.67188 11.708-2.85742 11.6724-3.0306 11.6013-3.19141 11.5302-3.35221 11.4343-3.49292 11.3137-3.61353 11.1931-3.73413 11.0524-3.82845 10.8916-3.89648 10.7308-3.96452 10.5576-3.99854 10.3721-3.99854L6.37354-3.99854C6.00244-3.99854 5.65609-4.06812 5.33447-4.20728 5.01286-4.34644 4.73145-4.53662 4.49023-4.77783 4.24902-5.01904 4.05884-5.302 3.91968-5.62671 3.78052-5.95142 3.71094-6.29932 3.71094-6.67041 3.71094-7.53011 3.82227-8.35734 4.04492-9.1521 4.26758-9.94686 4.58146-10.6906 4.98657-11.3833 5.39168-12.076 5.8772-12.7053 6.44312-13.2712 7.00903-13.8372 7.63835-14.3227 8.33105-14.7278 9.02376-15.1329 9.7675-15.4468 10.5623-15.6694 11.357-15.8921 12.1842-16.0034 13.0439-16.0034 13.9036-16.0034 14.7309-15.8921 15.5256-15.6694 16.3204-15.4468 17.0641-15.1329 17.7568-14.7278 18.4495-14.3227 19.0789-13.8372 19.6448-13.2712 20.2107-12.7053 20.6962-12.076 21.1013-11.3833 21.5064-10.6906 21.8203-9.94686 22.043-9.1521 22.2656-8.35734 22.377-7.53011 22.377-6.67041 22.377-5.81071 22.2656-4.98348 22.043-4.18872 21.8203-3.39396 21.5064-2.65023 21.1013-1.95752 20.6962-1.26481 20.2107-0.635498 19.6448-0.0695801 19.0789 0.496338 18.4495 0.981852 17.7568 1.38696 17.0641 1.79207 16.3204 2.10596 15.5256 2.32861 14.7309 2.55127 13.9036 2.6626 13.0439 2.6626Z" fill="#FFB900" transform="translate(216.706 214)"/><path d="M9.71338-9.66699C9.71338-9.43815 9.67008-9.22323 9.5835-9.02222 9.49691-8.82121 9.37785-8.64494 9.22632-8.49341 9.07479-8.34188 8.89697-8.22282 8.69287-8.13623 8.48877-8.04964 8.2723-8.00635 8.04346-8.00635 7.81462-8.00635 7.59814-8.04964 7.39404-8.13623 7.18994-8.22282 7.01213-8.34188 6.8606-8.49341 6.70907-8.64494 6.59001-8.82121 6.50342-9.02222 6.41683-9.22323 6.37353-9.43815 6.37354-9.66699 6.37353-9.89583 6.41683-10.1123 6.50342-10.3164 6.59001-10.5205 6.70907-10.6983 6.8606-10.8499 7.01213-11.0014 7.1884-11.1204 7.3894-11.207 7.59041-11.2936 7.80843-11.3369 8.04346-11.3369 8.2723-11.3369 8.48877-11.2936 8.69287-11.207 8.89697-11.1204 9.07479-11.0014 9.22632-10.8499 9.37785-10.6983 9.49691-10.5205 9.5835-10.3164 9.67008-10.1123 9.71338-9.89583 9.71338-9.66699Z" fill="#16C60C" transform="translate(216.706 214)"/><path d="M15.0479-12.3389C15.0479-12.1038 15.0046-11.8858 14.918-11.6848 14.8314-11.4838 14.7123-11.3075 14.5608-11.156 14.4093-11.0045 14.2314-10.8854 14.0273-10.7988 13.8232-10.7122 13.6068-10.6689 13.3779-10.6689 13.1429-10.6689 12.9249-10.7122 12.7239-10.7988 12.5229-10.8854 12.3466-11.0045 12.1951-11.156 12.0435-11.3075 11.9245-11.4838 11.8379-11.6848 11.7513-11.8858 11.708-12.1038 11.708-12.3389 11.708-12.5677 11.7513-12.7842 11.8379-12.9883 11.9245-13.1924 12.0435-13.3702 12.1951-13.5217 12.3466-13.6733 12.5229-13.7923 12.7239-13.8789 12.9249-13.9655 13.1429-14.0088 13.3779-14.0088 13.6068-14.0088 13.8232-13.9655 14.0273-13.8789 14.2314-13.7923 14.4093-13.6733 14.5608-13.5217 14.7123-13.3702 14.8314-13.1924 14.918-12.9883 15.0046-12.7842 15.0479-12.5677 15.0479-12.3389Z" fill="#F03A17" transform="translate(216.706 214)"/><path d="M18.0444-7.33838C17.8094-7.33838 17.5914-7.38167 17.3904-7.46826 17.1894-7.55485 17.0131-7.67391 16.8616-7.82544 16.71-7.97697 16.591-8.15324 16.5044-8.35425 16.4178-8.55526 16.3745-8.77327 16.3745-9.0083 16.3745-9.23714 16.4178-9.45207 16.5044-9.65308 16.591-9.85408 16.71-10.0304 16.8616-10.1819 17.0131-10.3334 17.1909-10.4525 17.395-10.5391 17.5991-10.6257 17.8156-10.6689 18.0444-10.6689 18.2733-10.6689 18.4897-10.6257 18.6938-10.5391 18.8979-10.4525 19.0758-10.3334 19.2273-10.1819 19.3788-10.0304 19.4979-9.85408 19.5845-9.65308 19.6711-9.45207 19.7144-9.23714 19.7144-9.0083 19.7144-8.77327 19.6711-8.55526 19.5845-8.35425 19.4979-8.15324 19.3788-7.97697 19.2273-7.82544 19.0758-7.67391 18.8979-7.55485 18.6938-7.46826 18.4897-7.38167 18.2733-7.33838 18.0444-7.33838Z" fill="#FCE100" transform="translate(216.706 214)"/><path d="M15.7158-3.66455C15.7158-3.89339 15.7591-4.10986 15.8457-4.31396 15.9323-4.51807 16.0513-4.69588 16.2029-4.84741 16.3544-4.99894 16.5307-5.118 16.7317-5.20459 16.9327-5.29118 17.1476-5.33447 17.3765-5.33447 17.6053-5.33447 17.8218-5.29118 18.0259-5.20459 18.23-5.118 18.4078-4.99894 18.5593-4.84741 18.7109-4.69588 18.8299-4.51807 18.9165-4.31396 19.0031-4.10986 19.0464-3.89339 19.0464-3.66455 19.0464-3.43571 19.0031-3.22078 18.9165-3.01978 18.8299-2.81877 18.7109-2.6425 18.5593-2.49097 18.4078-2.33944 18.23-2.22038 18.0259-2.13379 17.8218-2.0472 17.6053-2.00391 17.3765-2.00391 17.1476-2.00391 16.9327-2.0472 16.7317-2.13379 16.5307-2.22038 16.3544-2.33944 16.2029-2.49097 16.0513-2.6425 15.9323-2.81877 15.8457-3.01978 15.7591-3.22078 15.7158-3.43571 15.7158-3.66455Z" fill="#0046FF" transform="translate(216.706 214)"/><path d="M15.7065-0.222656C15.7065 0.0247396 15.6215 0.235026 15.4514 0.408203 15.2813 0.58138 15.0726 0.667969 14.8252 0.667969 14.5778 0.667969 14.3459 0.621582 14.1294 0.528809 13.9129 0.436035 13.7243 0.309245 13.5635 0.148438 13.4027-0.0123698 13.2759-0.201009 13.1831-0.41748 13.0903-0.633952 13.0439-0.865885 13.0439-1.11328 13.0439-1.36068 13.1305-1.57096 13.3037-1.74414 13.4769-1.91732 13.6872-2.00391 13.9346-2.00391 14.182-2.00391 14.4124-1.95752 14.6257-1.86475 14.8391-1.77197 15.0262-1.64518 15.187-1.48438 15.3478-1.32357 15.4746-1.13493 15.5674-0.918457 15.6602-0.701986 15.7065-0.470052 15.7065-0.222656Z" fill="#FFFFFF" transform="translate(216.706 214)"/><text font-family="Pretendard,Pretendard_MSFontService,sans-serif" font-weight="400" font-size="19" transform="translate(247.039 214)">디자인<tspan fill="#404040" font-size="15" x="-30.3333" y="104">프로젝트</tspan><tspan fill="#404040" font-size="15" x="24" y="104">기획안과</tspan><tspan fill="#404040" font-size="15" x="78.3333" y="104">디자인을</tspan><tspan fill="#404040" font-size="15" x="132.667" y="104">바탕으로</tspan><tspan fill="#404040" font-size="15" x="-30.3333" y="122">개발을</tspan><tspan fill="#404040" font-size="15" x="11.3333" y="122">시작합니다</tspan><tspan fill="#404040" font-size="15" x="74.6667" y="122">.</tspan></text><path d="M0 0 41.9223 0.308136" stroke="#7F7F7F" stroke-width="1.33333" stroke-miterlimit="8" stroke-dasharray="4 1.33333" fill="none" fill-rule="evenodd" transform="matrix(1 0 0 -1 165.5 322.808)"/><path d="M149.5 322.5C149.5 318.082 153.082 314.5 157.5 314.5 161.918 314.5 165.5 318.082 165.5 322.5 165.5 326.918 161.918 330.5 157.5 330.5 153.082 330.5 149.5 326.918 149.5 322.5Z" stroke="#014067" stroke-width="1.33333" stroke-miterlimit="8" fill="#FFFFFF" fill-rule="evenodd"/><path d="" transform="translate(216.706 296)"/><path d="M21.709-2.55127 23.1841-1.08545C23.3511-0.918457 23.481-0.723633 23.5737-0.500977 23.6665-0.27832 23.7129-0.0494792 23.7129 0.185547 23.7129 0.439128 23.665 0.6757 23.5691 0.895264 23.4732 1.11483 23.3449 1.30501 23.1841 1.46582 23.0233 1.62663 22.8315 1.75496 22.6089 1.85083 22.3862 1.9467 22.1512 1.99463 21.9038 1.99463L4.18408 1.99463C3.9305 1.99463 3.69393 1.9467 3.47437 1.85083 3.2548 1.75496 3.06462 1.62663 2.90381 1.46582 2.743 1.30501 2.61466 1.11483 2.5188 0.895264 2.42293 0.6757 2.375 0.439128 2.375 0.185547 2.375-0.0494792 2.42139-0.27832 2.51416-0.500977 2.60693-0.723633 2.73682-0.918457 2.90381-1.08545L4.37891-2.55127 4.37891-12.0049C4.37891-12.2832 4.43148-12.543 4.53662-12.7842 4.64176-13.0254 4.78402-13.2372 4.96338-13.4197 5.14274-13.6021 5.35303-13.7459 5.59424-13.8511 5.83545-13.9562 6.09521-14.0088 6.37354-14.0088L19.7144-14.0088C19.9927-14.0088 20.2524-13.9562 20.4937-13.8511 20.7349-13.7459 20.9451-13.6021 21.1245-13.4197 21.3039-13.2372 21.4461-13.0254 21.5513-12.7842 21.6564-12.543 21.709-12.2832 21.709-12.0049Z" transform="translate(216.706 296)"/><path d="M20.3823-2.00391 22.2378-0.13916C22.3306-0.0463867 22.377 0.061849 22.377 0.185547 22.377 0.321615 22.3306 0.436035 22.2378 0.528809 22.145 0.621582 22.0337 0.667969 21.9038 0.667969L4.18408 0.667969C4.0542 0.667969 3.94287 0.621582 3.8501 0.528809 3.75732 0.436035 3.71094 0.321615 3.71094 0.185547 3.71094 0.061849 3.75732-0.0463867 3.8501-0.13916L5.70557-2.00391 5.70557-12.0049C5.70557-12.1842 5.77205-12.3404 5.90503-12.4734 6.038-12.6064 6.19417-12.6729 6.37354-12.6729L19.7144-12.6729C19.8937-12.6729 20.0499-12.6064 20.1829-12.4734 20.3158-12.3404 20.3823-12.1842 20.3823-12.0049Z" fill="#CCCCCC" transform="translate(216.706 296)"/><path d="M19.7144-2.67188 6.37354-2.67188 6.37354-12.0049 19.7144-12.0049Z" fill="#1F1F1F" transform="translate(216.706 296)"/><path d="M19.3804-2.00391 20.4937-0.881348C20.5184-0.856608 20.5308-0.825684 20.5308-0.788574 20.5308-0.708171 20.4906-0.667969 20.4102-0.667969L15.3818-0.667969 15.7065 0 10.3721 0 10.7061-0.667969 5.67773-0.667969C5.64062-0.667969 5.6097-0.681885 5.58496-0.709717 5.56022-0.737549 5.54785-0.766927 5.54785-0.797852 5.54785-0.834961 5.60197-0.910726 5.71021-1.02515 5.81844-1.13957 5.93905-1.26326 6.07202-1.39624 6.205-1.52922 6.33488-1.65446 6.46167-1.77197 6.58846-1.88949 6.67041-1.9668 6.70752-2.00391Z" fill="#A6A6A6" transform="translate(216.706 296)"/><text font-family="Pretendard,Pretendard_MSFontService,sans-serif" font-weight="400" font-size="19" transform="translate(247.039 296)">개발<tspan fill="#404040" font-size="15" x="-30.3333" y="126">프로젝트를</tspan><tspan fill="#404040" font-size="15" x="36.6667" y="126">런칭하기</tspan><tspan fill="#404040" font-size="15" x="91" y="126">전에</tspan><tspan fill="#404040" font-size="15" x="120" y="126">기획</tspan><tspan fill="#404040" font-size="15" x="145.333" y="126">, </tspan><tspan fill="#404040" font-size="15" x="152.833" y="126">디자인</tspan><tspan fill="#404040" font-size="15" x="190.833" y="126">, </tspan><tspan fill="#404040" font-size="15" x="198.333" y="126">개발까지</tspan><tspan fill="#404040" font-size="15" x="252.667" y="126">과정</tspan><tspan fill="#404040" font-size="15" x="281.667" y="126">중</tspan><tspan fill="#404040" font-size="15" x="-30.3333" y="144">부족한</tspan><tspan fill="#404040" font-size="15" x="11.3333" y="144">부분을</tspan><tspan fill="#404040" font-size="15" x="53" y="144">보완합니다</tspan><tspan fill="#404040" font-size="15" x="116.333" y="144">.</tspan></text><path d="M0 0 41.9223 0.308136" stroke="#7F7F7F" stroke-width="1.33333" stroke-miterlimit="8" stroke-dasharray="4 1.33333" fill="none" fill-rule="evenodd" transform="matrix(1 0 0 -1 165.5 426.808)"/><path d="M149.5 426.5C149.5 422.082 153.082 418.5 157.5 418.5 161.918 418.5 165.5 422.082 165.5 426.5 165.5 430.918 161.918 434.5 157.5 434.5 153.082 434.5 149.5 430.918 149.5 426.5Z" stroke="#014067" stroke-width="1.33333" stroke-miterlimit="8" fill="#FFFFFF" fill-rule="evenodd"/><path d="" transform="translate(216.706 403)"/><path d="M6.37354 3.99854C5.82308 3.99854 5.30509 3.89339 4.81958 3.68311 4.33407 3.47282 3.9104 3.18677 3.54858 2.82495 3.18677 2.46313 2.90072 2.03947 2.69043 1.55396 2.48014 1.06844 2.375 0.550456 2.375 0 2.375-0.575195 2.48324-1.1071 2.69971-1.5957 2.91618-2.08431 3.20996-2.50643 3.58105-2.86206 3.95215-3.21769 4.38664-3.49601 4.88452-3.69702 5.38241-3.89803 5.91585-3.99854 6.48486-3.99854L15.7158-13.2295C15.7158-13.248 15.7143-13.2666 15.7112-13.2852 15.7081-13.3037 15.7065-13.3223 15.7065-13.3408 15.7065-13.8913 15.8117-14.4093 16.022-14.8948 16.2323-15.3803 16.5199-15.804 16.8848-16.1658 17.2497-16.5276 17.6749-16.8136 18.1604-17.0239 18.6459-17.2342 19.1639-17.3394 19.7144-17.3394 20.2648-17.3394 20.7828-17.2342 21.2683-17.0239 21.7538-16.8136 22.1775-16.5276 22.5393-16.1658 22.9011-15.804 23.1872-15.3803 23.3975-14.8948 23.6077-14.4093 23.7129-13.8913 23.7129-13.3408 23.7129-12.7904 23.6093-12.2724 23.4021-11.7869 23.1949-11.3014 22.9104-10.8777 22.5486-10.5159 22.1868-10.1541 21.7646-9.868 21.2822-9.65771 20.7998-9.44743 20.2834-9.34229 19.7329-9.34229L19.603-9.34229 10.3721-0.111328C10.3721 0.457682 10.2716 0.99113 10.0706 1.48901 9.86955 1.9869 9.59123 2.42139 9.2356 2.79248 8.87996 3.16357 8.45784 3.45736 7.96924 3.67383 7.48063 3.8903 6.94873 3.99854 6.37354 3.99854Z" transform="translate(216.706 403)"/><path d="M22.1357-14.4355C22.2965-14.083 22.377-13.7181 22.377-13.3408 22.377-12.9759 22.3058-12.6326 22.1636-12.311 22.0213-11.9894 21.8296-11.7065 21.5884-11.4622 21.3472-11.2179 21.0642-11.0246 20.7395-10.8823 20.4148-10.7401 20.0731-10.6689 19.7144-10.6689 19.6092-10.6689 19.5072-10.6751 19.4082-10.6875 19.3092-10.6999 19.2103-10.7153 19.1113-10.7339L8.97119-0.603027C9.02067-0.392741 9.04541-0.191732 9.04541 0 9.04541 0.371094 8.97583 0.717448 8.83667 1.03906 8.69751 1.36068 8.50732 1.64209 8.26611 1.8833 8.0249 2.12451 7.74194 2.3147 7.41724 2.45386 7.09253 2.59302 6.74463 2.6626 6.37354 2.6626 5.99626 2.6626 5.63135 2.58219 5.27881 2.42139L7.0415 0.667969 7.0415 0 6.37354-0.667969 5.70557-0.667969 3.95215 1.09473C3.79134 0.742188 3.71094 0.377279 3.71094 0 3.71094-0.371094 3.78052-0.718994 3.91968-1.0437 4.05884-1.36841 4.24902-1.65137 4.49023-1.89258 4.73145-2.13379 5.01286-2.32397 5.33447-2.46313 5.65609-2.60229 6.00244-2.67188 6.37354-2.67188 6.56527-2.67188 6.76628-2.64714 6.97656-2.59766L17.1074-12.7378C17.0889-12.8368 17.0734-12.9357 17.061-13.0347 17.0487-13.1336 17.0425-13.2357 17.0425-13.3408 17.0425-13.6995 17.1136-14.0413 17.2559-14.366 17.3981-14.6907 17.5914-14.9736 17.8357-15.2148 18.08-15.4561 18.363-15.6478 18.6846-15.79 19.0062-15.9323 19.3494-16.0034 19.7144-16.0034 20.0916-16.0034 20.4565-15.923 20.8091-15.7622L19.0464-14.0088 19.0464-13.3408 19.7144-12.6729 20.3823-12.6729Z" fill="#CCCCCC" transform="translate(216.706 403)"/><text font-family="Pretendard,Pretendard_MSFontService,sans-serif" font-weight="400" font-size="19" transform="translate(247.039 403)">프로젝트<tspan font-size="19" x="69.3333" y="0">보완</tspan><tspan fill="#404040" font-size="15" x="-30.3333" y="126">프로젝트를</tspan><tspan fill="#404040" font-size="15" x="36.6667" y="126">런칭하고</tspan><tspan fill="#404040" font-size="15" x="91" y="126">사용자의</tspan><tspan fill="#404040" font-size="15" x="145.333" y="126">피드백을</tspan><tspan fill="#404040" font-size="15" x="199.667" y="126">수집하여</tspan><tspan fill="#404040" font-size="15" x="-30.3333" y="144">서비스의</tspan><tspan fill="#404040" font-size="15" x="24" y="144">버그나</tspan><tspan fill="#404040" font-size="15" x="65.6667" y="144">보완할</tspan><tspan fill="#404040" font-size="15" x="107.333" y="144">점을</tspan><tspan fill="#404040" font-size="15" x="136.333" y="144">찾습니다</tspan><tspan fill="#404040" font-size="15" x="187" y="144">.</tspan></text><path d="M0 0 41.9223 0.308136" stroke="#7F7F7F" stroke-width="1.33333" stroke-miterlimit="8" stroke-dasharray="4 1.33333" fill="none" fill-rule="evenodd" transform="matrix(1 0 0 -1 165.5 533.808)"/><path d="M149.5 534C149.5 529.858 153.082 526.5 157.5 526.5 161.918 526.5 165.5 529.858 165.5 534 165.5 538.142 161.918 541.5 157.5 541.5 153.082 541.5 149.5 538.142 149.5 534Z" stroke="#014067" stroke-width="1.33333" stroke-miterlimit="8" fill="#FFFFFF" fill-rule="evenodd"/><path d="" transform="translate(216.706 508)"/><path d="M17.3857 3.99854C17.1507 3.99854 16.9327 3.95524 16.7317 3.86865 16.5307 3.78206 16.3544 3.663 16.2029 3.51147 16.0513 3.35994 15.9323 3.18367 15.8457 2.98267 15.7591 2.78166 15.7158 2.56364 15.7158 2.32861L15.7158 1.99463C15.7158 1.80908 15.6818 1.6359 15.6138 1.4751 15.5457 1.31429 15.4514 1.17358 15.3308 1.05298 15.2102 0.932373 15.0695 0.838053 14.9087 0.77002 14.7479 0.701986 14.5747 0.667969 14.3892 0.667969L11.0493 0.667969C10.604 0.667969 10.1772 0.596842 9.76904 0.45459 9.36084 0.312337 8.98665 0.114421 8.64648-0.13916 8.30631-0.392741 8.01253-0.697347 7.76514-1.05298 7.51774-1.40861 7.33219-1.7998 7.2085-2.22656 6.94873-2.375 6.74617-2.5791 6.60083-2.83887 6.45548-3.09863 6.38281-3.37695 6.38281-3.67383 6.38281-3.87793 6.42301-4.08512 6.50342-4.29541 6.05192-4.61702 5.62516-4.96802 5.22314-5.34839 4.82113-5.72876 4.45312-6.13696 4.11914-6.573 3.78516-7.00903 3.49137-7.47135 3.23779-7.95996 2.98421-8.44857 2.78011-8.96191 2.62549-9.5 2.55745-9.7474 2.4987-9.99479 2.44922-10.2422 2.39974-10.4896 2.375-10.7432 2.375-11.0029 2.375-11.5843 2.45076-12.1456 2.60229-12.6868 2.75382-13.2279 2.9672-13.7336 3.24243-14.2036 3.51766-14.6737 3.84701-15.1004 4.23047-15.4839 4.61393-15.8673 5.04069-16.1967 5.51074-16.4719 5.98079-16.7472 6.48641-16.9605 7.02759-17.1121 7.56877-17.2636 8.13004-17.3394 8.71143-17.3394 9.29281-17.3394 9.85254-17.2636 10.3906-17.1121 10.9287-16.9605 11.4328-16.7472 11.9028-16.4719 12.3729-16.1967 12.8012-15.8658 13.1877-15.4792 13.5743-15.0927 13.9052-14.6644 14.1804-14.1943 14.4556-13.7243 14.669-13.2202 14.8206-12.6821 14.9721-12.144 15.0479-11.5843 15.0479-11.0029 15.0479-10.7432 15.0231-10.4896 14.9736-10.2422 14.9242-9.99479 14.8654-9.7474 14.7974-9.5 14.6427-8.9681 14.4386-8.4563 14.1851-7.9646 13.9315-7.4729 13.6377-7.00903 13.3037-6.573 12.9697-6.13696 12.6017-5.72721 12.1997-5.34375 11.7977-4.96029 11.374-4.61084 10.9287-4.29541 11.0091-4.09749 11.0493-3.88721 11.0493-3.66455 11.0493-3.49756 11.0261-3.33521 10.9797-3.17749 10.9333-3.01978 10.8607-2.87288 10.7617-2.73682 10.8359-2.71208 10.9287-2.69352 11.04-2.68115 11.1514-2.66878 11.2689-2.65951 11.3926-2.65332 11.5163-2.64714 11.6384-2.64404 11.759-2.64404 11.8796-2.64404 11.9863-2.64404 12.0791-2.64404 12.4935-2.64404 12.8893-2.64868 13.2666-2.65796 13.6439-2.66724 14.0181-2.67188 14.3892-2.67188 15.0324-2.67188 15.637-2.54972 16.2029-2.30542 16.7688-2.06112 17.2636-1.72713 17.6873-1.30347 18.1109-0.879801 18.4449-0.38501 18.6892 0.180908 18.9335 0.746826 19.0557 1.3514 19.0557 1.99463L19.0557 2.32861C19.0557 2.56364 19.0124 2.78166 18.9258 2.98267 18.8392 3.18367 18.7201 3.35994 18.5686 3.51147 18.4171 3.663 18.2393 3.78206 18.0352 3.86865 17.8311 3.95524 17.6146 3.99854 17.3857 3.99854Z" transform="translate(216.706 508)"/><path d="M8.37744-3.33984C8.37744-3.37695 8.3929-3.40478 8.42383-3.42334 8.45475-3.44189 8.49186-3.45581 8.53516-3.46509 8.57845-3.47436 8.62174-3.48055 8.66504-3.48364 8.70833-3.48673 8.74235-3.48828 8.76709-3.48828 8.83512-3.48828 8.88924-3.48055 8.92944-3.46509 8.96964-3.44963 9.0083-3.40788 9.04541-3.33984 9.06396-3.30892 9.07788-3.26408 9.08716-3.20532 9.09644-3.14657 9.10571-3.08317 9.11499-3.01514 9.12427-2.9471 9.13509-2.88062 9.14746-2.81567 9.15983-2.75073 9.1722-2.69661 9.18457-2.65332 9.32064-2.24512 9.55721-1.9235 9.89429-1.68848 10.2314-1.45345 10.6133-1.33594 11.04-1.33594L14.3799-1.33594C14.8376-1.33594 15.269-1.2478 15.6741-1.07153 16.0792-0.895264 16.4317-0.657145 16.7317-0.357178 17.0317-0.0572103 17.2698 0.295329 17.446 0.700439 17.6223 1.10555 17.7104 1.53695 17.7104 1.99463L17.7104 2.20801C17.7104 2.32552 17.6903 2.43066 17.6501 2.52344 17.6099 2.61621 17.5187 2.6626 17.3765 2.6626 17.2837 2.6626 17.2048 2.63013 17.1399 2.56519 17.075 2.50024 17.0425 2.42139 17.0425 2.32861L17.0425 1.99463C17.0425 1.62972 16.9729 1.28491 16.8337 0.960205 16.6946 0.635498 16.5044 0.352539 16.2632 0.111328 16.022-0.129883 15.739-0.320068 15.4143-0.459229 15.0896-0.598389 14.7448-0.667969 14.3799-0.667969L11.04-0.667969C10.6751-0.667969 10.3319-0.739095 10.0103-0.881348 9.68864-1.0236 9.40723-1.21688 9.16602-1.46118 8.9248-1.70548 8.73307-1.98844 8.59082-2.31006 8.44857-2.63167 8.37744-2.97493 8.37744-3.33984Z" fill="#FFFFFF" transform="translate(216.706 508)"/><path d="M13.7026-11.0029C13.7026-10.7679 13.6764-10.536 13.6238-10.3071 13.5712-10.0783 13.5078-9.85254 13.4336-9.62988 13.248-9.07943 13.0099-8.56299 12.7192-8.08057 12.4285-7.59814 12.093-7.15129 11.7126-6.73999 11.3323-6.32869 10.9179-5.94987 10.4695-5.60352 10.0211-5.25716 9.54639-4.94482 9.04541-4.6665 9.08252-4.62321 9.13818-4.55672 9.2124-4.46704 9.28662-4.37736 9.36084-4.28149 9.43506-4.17944 9.50928-4.07739 9.57422-3.97843 9.62988-3.88257 9.68555-3.7867 9.71338-3.71403 9.71338-3.66455 9.71338-3.55941 9.67936-3.479 9.61133-3.42334 9.54329-3.36768 9.4598-3.33984 9.36084-3.33984L8.04346-3.33984C7.95068-3.33984 7.87183-3.36922 7.80688-3.42798 7.74194-3.48673 7.70947-3.56559 7.70947-3.66455 7.70947-3.71403 7.7373-3.7867 7.79297-3.88257 7.84863-3.97843 7.91357-4.07739 7.98779-4.17944 8.06201-4.28149 8.13623-4.37736 8.21045-4.46704 8.28467-4.55672 8.34033-4.62321 8.37744-4.6665 7.88265-4.94482 7.4095-5.25716 6.95801-5.60352 6.50651-5.94987 6.09058-6.33024 5.71021-6.74463 5.32983-7.15902 4.99276-7.60588 4.69897-8.08521 4.40519-8.56453 4.16553-9.07943 3.97998-9.62988 3.90576-9.85254 3.84082-10.0783 3.78516-10.3071 3.72949-10.536 3.70166-10.7679 3.70166-11.0029 3.70166-11.6956 3.83309-12.3451 4.09595-12.9512 4.35881-13.5573 4.71598-14.0861 5.16748-14.5376 5.61898-14.9891 6.14779-15.3463 6.75391-15.6091 7.36003-15.872 8.00944-16.0034 8.70215-16.0034 9.39486-16.0034 10.0443-15.872 10.6504-15.6091 11.2565-15.3463 11.7853-14.9891 12.2368-14.5376 12.6883-14.0861 13.0455-13.5573 13.3083-12.9512 13.5712-12.3451 13.7026-11.6956 13.7026-11.0029Z" fill="#F03A17" transform="translate(216.706 508)"/><path d="M11.6987-10.335C11.5194-10.335 11.3632-10.4014 11.2302-10.5344 11.0972-10.6674 11.0308-10.8236 11.0308-11.0029 11.0308-11.3245 10.9689-11.6261 10.8452-11.9075 10.7215-12.1889 10.5545-12.4363 10.3442-12.6497 10.134-12.863 9.8881-13.0316 9.60669-13.1553 9.32528-13.279 9.02376-13.3408 8.70215-13.3408 8.5166-13.3408 8.35889-13.4058 8.229-13.5356 8.09912-13.6655 8.03418-13.8232 8.03418-14.0088 8.03418-14.1882 8.10067-14.3428 8.23364-14.4727 8.36662-14.6025 8.52279-14.6675 8.70215-14.6675 9.20931-14.6675 9.68555-14.5716 10.1309-14.3799 10.5762-14.1882 10.9643-13.9268 11.2952-13.5959 11.6261-13.2651 11.8874-12.877 12.0791-12.4316 12.2708-11.9863 12.3667-11.5101 12.3667-11.0029 12.3667-10.8174 12.3018-10.6597 12.1719-10.5298 12.042-10.3999 11.8843-10.335 11.6987-10.335Z" fill="#EE9889" transform="translate(216.706 508)"/><text font-family="Pretendard,Pretendard_MSFontService,sans-serif" font-weight="400" font-size="19" transform="translate(242.372 508)">서비스<tspan font-size="19" x="53.1667" y="0">런칭</tspan><tspan font-size="19" x="90.1667" y="0">및</tspan><tspan font-size="19" x="111" y="0">피드백</tspan><tspan font-size="19" x="164.167" y="0">수집</tspan><tspan fill="#404040" font-size="15" x="-25.6667" y="122">수집한</tspan><tspan fill="#404040" font-size="15" x="16" y="122">피드백을</tspan><tspan fill="#404040" font-size="15" x="70.3333" y="122">기반으로</tspan><tspan fill="#404040" font-size="15" x="124.667" y="122">서비스를</tspan><tspan fill="#404040" font-size="15" x="179" y="122">개선한</tspan><tspan fill="#404040" font-size="15" x="220.667" y="122">후</tspan><tspan fill="#404040" font-size="15" x="-25.6667" y="140">서비스를</tspan><tspan fill="#404040" font-size="15" x="28.6667" y="140">재</tspan><tspan fill="#404040" font-size="15" x="45" y="140">런칭합니다</tspan><tspan fill="#404040" font-size="15" x="108.333" y="140">.</tspan></text><path d="M0 0 41.9223 0.308136" stroke="#7F7F7F" stroke-width="1.33333" stroke-miterlimit="8" stroke-dasharray="4 1.33333" fill="none" fill-rule="evenodd" transform="matrix(1 0 0 -1 165.5 633.808)"/><path d="M149.5 634.5C149.5 630.082 153.082 626.5 157.5 626.5 161.918 626.5 165.5 630.082 165.5 634.5 165.5 638.918 161.918 642.5 157.5 642.5 153.082 642.5 149.5 638.918 149.5 634.5Z" stroke="#014067" stroke-width="1.33333" stroke-miterlimit="8" fill="#FFFFFF" fill-rule="evenodd"/><path d="" transform="translate(216.706 608)"/><path d="M9.71338-17.3394C10.3875-17.3394 11.0369-17.2512 11.6616-17.075 12.2863-16.8987 12.8692-16.6513 13.4104-16.3328 13.9516-16.0142 14.4464-15.6323 14.8948-15.187 15.3432-14.7417 15.7266-14.2469 16.0452-13.7026 16.3637-13.1584 16.6095-12.5739 16.7827-11.9492 16.9559-11.3245 17.0425-10.6751 17.0425-10.001 17.0425-9.00521 16.8662-8.06356 16.5137-7.17603 16.1611-6.28849 15.6571-5.47054 15.0015-4.72217 14.8283-4.52425 14.6474-4.34025 14.4587-4.17017 14.2701-4.00008 14.083-3.82536 13.8975-3.646 13.7738-3.52848 13.6593-3.40942 13.5542-3.28882 13.4491-3.16821 13.3594-3.04297 13.2852-2.91309 13.2109-2.7832 13.1522-2.64404 13.1089-2.49561 13.0656-2.34717 13.0439-2.18327 13.0439-2.00391L13.0439 1.66064C13.0439 1.86475 13.0084 2.06112 12.9373 2.24976 12.8661 2.4384 12.7672 2.60693 12.6404 2.75537 12.5136 2.90381 12.3621 3.02751 12.1858 3.12646 12.0095 3.22542 11.8193 3.28727 11.6152 3.31201L10.9287 3.99854 8.48877 3.99854 7.80225 3.31201C7.59814 3.28727 7.40796 3.22542 7.23169 3.12646 7.05542 3.02751 6.90389 2.90381 6.7771 2.75537 6.65031 2.60693 6.55135 2.4384 6.48022 2.24976 6.4091 2.06112 6.37353 1.86475 6.37354 1.66064L6.37354-2.00391C6.37353-2.18327 6.35189-2.34717 6.30859-2.49561 6.2653-2.64404 6.20654-2.7832 6.13232-2.91309 6.05811-3.04297 5.96997-3.16821 5.86792-3.28882 5.76587-3.40942 5.65299-3.52848 5.5293-3.646 5.34375-3.82536 5.15666-4.00008 4.96802-4.17017 4.77938-4.34025 4.59847-4.52425 4.42529-4.72217 3.76969-5.47054 3.26408-6.28849 2.90845-7.17603 2.55282-8.06356 2.375-9.00521 2.375-10.001 2.375-10.6751 2.46313-11.3245 2.6394-11.9492 2.81567-12.5739 3.06307-13.1584 3.38159-13.7026 3.70011-14.2469 4.08203-14.7417 4.52734-15.187 4.97266-15.6323 5.46745-16.0142 6.01172-16.3328 6.55599-16.6513 7.14046-16.8987 7.76514-17.075 8.38981-17.2512 9.03922-17.3394 9.71338-17.3394Z" transform="translate(216.706 608)"/><path d="M8.37744 1.99463 8.37744-1.31738 11.04-1.31738 11.04 1.99463 10.3721 2.6626 9.04541 2.6626Z" fill="#CCCCCC" transform="translate(216.706 608)"/><path d="M9.71338-16.0034C10.5422-16.0034 11.3199-15.8457 12.0466-15.5303 12.7734-15.2148 13.4089-14.7865 13.9531-14.2454 14.4974-13.7042 14.9257-13.0687 15.238-12.3389 15.5504-11.609 15.7065-10.8298 15.7065-10.001 15.7065-9.42578 15.6431-8.89543 15.5164-8.40991 15.3896-7.9244 15.2087-7.46826 14.9736-7.0415 14.7386-6.61475 14.4572-6.20809 14.1294-5.82153 13.8016-5.43498 13.4398-5.04997 13.0439-4.6665 12.8398-4.46859 12.6558-4.27531 12.4919-4.08667 12.328-3.89803 12.1889-3.69857 12.0745-3.48828 11.96-3.27799 11.8704-3.05225 11.8054-2.81104 11.7405-2.56982 11.708-2.30078 11.708-2.00391L11.0122-1.54004 8.33105-1.54004 7.70947-2.00391C7.70947-2.2946 7.677-2.56055 7.61206-2.80176 7.54712-3.04297 7.45744-3.27026 7.34302-3.48364 7.2286-3.69702 7.08944-3.89958 6.92554-4.09131 6.76164-4.28304 6.57764-4.47477 6.37354-4.6665 5.97152-5.04997 5.60661-5.43498 5.27881-5.82153 4.95101-6.20809 4.67114-6.61475 4.43921-7.0415 4.20728-7.46826 4.02791-7.9244 3.90112-8.40991 3.77433-8.89543 3.71094-9.42578 3.71094-10.001 3.71094-10.5514 3.78206-11.0833 3.92432-11.5967 4.06657-12.11 4.26758-12.5894 4.52734-13.0347 4.78711-13.48 5.09945-13.8851 5.46436-14.25 5.82926-14.6149 6.23437-14.9272 6.67969-15.187 7.125-15.4468 7.60278-15.6478 8.11304-15.79 8.62329-15.9323 9.15674-16.0034 9.71338-16.0034Z" fill="#FFD679" transform="translate(216.706 608)"/><path d="M11.04-6.00244C11.2256-6.00244 11.3833-5.9375 11.5132-5.80762 11.6431-5.67773 11.708-5.52002 11.708-5.33447 11.708-5.15511 11.6415-4.99894 11.5085-4.86597 11.3756-4.73299 11.2194-4.6665 11.04-4.6665L11.04-2.00391 10.6968-1.63281 10.3721-2.00391 10.3721-4.6665 9.04541-4.6665 9.04541-2.00391 8.67432-1.63281 8.37744-2.00391 8.37744-4.6665C8.19808-4.6665 8.04191-4.73299 7.90894-4.86597 7.77596-4.99894 7.70947-5.15511 7.70947-5.33447 7.70947-5.52002 7.77441-5.67773 7.9043-5.80762 8.03418-5.9375 8.19189-6.00244 8.37744-6.00244 8.56299-6.00244 8.7207-5.9375 8.85059-5.80762 8.98047-5.67773 9.04541-5.52002 9.04541-5.33447L10.3721-5.33447C10.3721-5.51383 10.4386-5.67 10.5715-5.80298 10.7045-5.93595 10.8607-6.00244 11.04-6.00244Z" fill="#FFB900" transform="translate(216.706 608)"/><path d="M7.70947-2.00391 11.708-2.00391 11.708-0.667969 7.70947-0.667969ZM11.374 0C11.4668 0 11.5457 0.0324707 11.6106 0.0974121 11.6755 0.162354 11.708 0.241211 11.708 0.333984 11.708 0.426758 11.6755 0.505615 11.6106 0.570557 11.5457 0.635498 11.4668 0.667969 11.374 0.667969L8.04346 0.667969C7.95068 0.667969 7.87183 0.635498 7.80688 0.570557 7.74194 0.505615 7.70947 0.426758 7.70947 0.333984 7.70947 0.241211 7.74194 0.162354 7.80688 0.0974121 7.87183 0.0324707 7.95068 0 8.04346 0ZM11.374 1.33594C11.4606 1.33594 11.5379 1.36841 11.606 1.43335 11.674 1.49829 11.708 1.57406 11.708 1.66064 11.708 1.75342 11.6755 1.83228 11.6106 1.89722 11.5457 1.96216 11.4668 1.99463 11.374 1.99463L8.04346 1.99463C7.95068 1.99463 7.87183 1.96216 7.80688 1.89722 7.74194 1.83228 7.70947 1.75342 7.70947 1.66064 7.70947 1.57406 7.74349 1.49829 7.81152 1.43335 7.87956 1.36841 7.95687 1.33594 8.04346 1.33594Z" fill="#E5E5E5" transform="translate(216.706 608)"/><text font-family="Pretendard,Pretendard_MSFontService,sans-serif" font-weight="400" font-size="19" transform="translate(240.539 608)">개선<tspan font-size="19" x="37" y="0">및</tspan><tspan font-size="19" x="57.8333" y="0">재</tspan><tspan font-size="19" x="78.6667" y="0">런칭</tspan><tspan fill="#404040" font-size="15" x="355.181" y="-318">교수님의</tspan><tspan fill="#404040" font-size="15" x="409.514" y="-318">지원을</tspan><tspan fill="#404040" font-size="15" x="451.181" y="-318">받아</tspan><tspan fill="#404040" font-size="15" x="480.181" y="-318">기업체와</tspan><tspan fill="#404040" font-size="15" x="534.514" y="-318">함께</tspan><tspan fill="#404040" font-size="15" x="563.514" y="-318">짧은</tspan><tspan fill="#404040" font-size="15" x="592.514" y="-318">시간</tspan><tspan fill="#404040" font-size="15" x="621.514" y="-318">동안</tspan><tspan fill="#404040" font-size="15" x="355.181" y="-300">외주</tspan><tspan fill="#404040" font-size="15" x="384.181" y="-300">프로젝트를</tspan><tspan fill="#404040" font-size="15" x="451.181" y="-300">진행합니다</tspan><tspan fill="#404040" font-size="15" x="514.514" y="-300">.</tspan></text></g></svg>